<?xml version="1.0" encoding="UTF-8" standalone="no"?>
<!-- Created with Inkscape (http://www.inkscape.org/) -->

<svg
   width="248.67139"
   height="237.22067"
   viewBox="0 0 248.67139 237.22068"
   version="1.1"
   id="svg1"
   xml:space="preserve"
   xmlns:xlink="http://www.w3.org/1999/xlink"
   xmlns="http://www.w3.org/2000/svg"
   xmlns:svg="http://www.w3.org/2000/svg"><defs
     id="defs1"><style
       id="style1">
      .cls-1 {
        fill: url(#Degradado_sin_nombre_5);
      }

      .cls-2 {
        fill: none;
      }

      .cls-3 {
        fill: url(#Degradado_sin_nombre_5-3);
      }

      .cls-4 {
        fill: url(#Degradado_sin_nombre_5-5);
      }

      .cls-5 {
        fill: url(#Degradado_sin_nombre_5-2);
      }

      .cls-6 {
        fill: url(#Degradado_sin_nombre_5-4);
      }
    </style><linearGradient
       id="Degradado_sin_nombre_5"
       data-name="Degradado sin nombre 5"
       x1="27.66427"
       y1="718.33575"
       x2="276.33572"
       y2="718.33575"
       gradientTransform="translate(0,-594.00003)"
       gradientUnits="userSpaceOnUse"><stop
         offset="0"
         stop-color="#e42c37"
         id="stop1" /><stop
         offset=".6618747"
         stop-color="#de8218"
         id="stop2" /><stop
         offset=".9911113"
         stop-color="#dca90b"
         id="stop3" /></linearGradient><style
       id="style1-0">
      .cls-1 {
        fill: url(#Degradado_sin_nombre_6);
      }

      .cls-2 {
        fill: none;
      }
    </style><style
       id="style1-8">
      .cls-1 {
        fill: none;
      }

      .cls-2 {
        fill: url(#Degradado_sin_nombre);
      }
    </style><style
       id="style1-1">
      .cls-1 {
        fill: url(#Degradado_sin_nombre_5);
      }

      .cls-2 {
        fill: none;
      }

      .cls-3 {
        fill: url(#Degradado_sin_nombre_5-3);
      }

      .cls-4 {
        fill: url(#Degradado_sin_nombre_5-5);
      }

      .cls-5 {
        fill: url(#Degradado_sin_nombre_5-2);
      }

      .cls-6 {
        fill: url(#Degradado_sin_nombre_5-4);
      }
    </style><style
       id="style1-4">
      .cls-1 {
        fill: url(#Degradado_sin_nombre_4-4);
      }

      .cls-2 {
        fill: url(#Degradado_sin_nombre_4-2);
      }

      .cls-3 {
        fill: none;
      }

      .cls-4 {
        fill: url(#Degradado_sin_nombre_4);
      }

      .cls-5 {
        fill: url(#Degradado_sin_nombre_4-3);
      }
    </style><style
       id="style1-6">
      .cls-1 {
        fill: url(#Degradado_sin_nombre_5);
      }

      .cls-2 {
        fill: none;
      }

      .cls-3 {
        fill: url(#Degradado_sin_nombre_5-3);
      }

      .cls-4 {
        fill: url(#Degradado_sin_nombre_5-5);
      }

      .cls-5 {
        fill: url(#Degradado_sin_nombre_5-2);
      }

      .cls-6 {
        fill: url(#Degradado_sin_nombre_5-4);
      }
    </style><linearGradient
       id="Degradado_sin_nombre_5-2-6"
       data-name="Degradado sin nombre 5"
       x1="27.664268"
       y1="739.11365"
       x2="276.33572"
       y2="739.11365"
       xlink:href="#Degradado_sin_nombre_5" /><linearGradient
       id="Degradado_sin_nombre_5-3-1"
       data-name="Degradado sin nombre 5"
       x1="27.664268"
       y1="624.87878"
       x2="276.33572"
       y2="624.87878"
       xlink:href="#Degradado_sin_nombre_5" /><linearGradient
       id="Degradado_sin_nombre_5-5-8"
       data-name="Degradado sin nombre 5"
       x1="27.664268"
       y1="624.86346"
       x2="276.33572"
       y2="624.86346"
       xlink:href="#Degradado_sin_nombre_5" /><linearGradient
       xlink:href="#Degradado_sin_nombre_5"
       id="linearGradient9"
       gradientUnits="userSpaceOnUse"
       gradientTransform="translate(0,-594.00003)"
       x1="27.66427"
       y1="718.33575"
       x2="276.33572"
       y2="718.33575" /><linearGradient
       xlink:href="#Degradado_sin_nombre_5"
       id="linearGradient10"
       x1="27.664268"
       y1="624.87878"
       x2="276.33572"
       y2="624.87878" /></defs><g
     id="g7-2"
     transform="translate(-27.664238,-5.7253741)"><path
       class="cls-1"
       d="m 152.07682,5.7714186 c 35.73807,0 71.47618,0.023773 107.21423,-0.020255 7.06577,-0.0087 11.99576,3.2542248 15.24332,9.3259564 1.43842,2.689245 1.79663,5.639452 1.79623,8.653169 -0.003,22.872258 0.006,45.744511 0.005,68.616772 -10e-4,43.361829 0.005,86.723679 -0.0356,130.085509 -0.002,2.60243 -0.055,5.28349 -0.65451,7.79166 -1.69806,7.10351 -8.03409,12.4145 -15.32129,12.56993 -11.07355,0.23617 -22.15494,0.12587 -33.23299,0.12799 -60.63513,0.0116 -121.27023,0.009 -181.905349,0.0204 -9.990044,0.002 -17.486599,-7.42281 -17.492592,-17.52134 -0.02568,-43.24293 -0.01412,-86.48587 -0.01615,-129.728817 -0.0011,-24.063469 0.008,-48.12693 -0.0129,-72.190376 -0.0038,-4.37438 1.063164,-8.378802 3.87661,-11.784428 3.394832,-4.1093893 7.745433,-6.0021305 13.14294,-5.9921613 35.797562,0.06611 71.595291,0.034227 107.392991,0.034227 0,0 0,0.011747 0,0.011744 z M 35.091625,54.877087 c -0.03292,0.633533 -0.08324,1.155567 -0.08361,1.677642 -0.0038,5.360318 0.0024,10.720654 0.0021,16.080983 -0.0024,50.566828 0.05296,101.133788 -0.07202,151.700328 -0.01851,7.48908 5.464252,11.59581 11.313289,11.36362 5.887497,-0.2337 11.791519,-0.0506 17.688301,-0.0507 64.445655,-2.3e-4 128.891425,-0.0586 193.336775,0.0822 7.01498,0.0153 11.79147,-4.85512 11.77191,-11.68993 -0.15936,-55.68969 -0.0873,-111.38005 -0.0857,-167.070186 V 54.877098 H 35.091625 Z M 268.86161,47.498066 c 0.0356,-0.428509 0.0885,-0.771057 0.0889,-1.113682 0.009,-8.041664 0.0172,-16.08334 0.008,-24.124989 -6.7e-4,-0.589191 -0.0814,-1.190788 -0.21579,-1.765359 -1.10061,-4.705646 -4.98996,-7.534758 -10.33835,-7.535189 -71.12419,-0.0057 -142.24836,-0.01044 -213.372555,-0.01518 -5.827728,-3.87e-4 -9.987098,4.117658 -10.015392,10.012534 -0.03773,7.862612 -0.01271,15.725525 -0.0048,23.588307 3.32e-4,0.329624 0.09966,0.65916 0.147186,0.953552 0,0 233.702951,0 233.702951,4e-6 z"
       id="path3-7"
       style="fill:url(#linearGradient9)" /><path
       class="cls-5"
       d="m 149.65444,167.90416 c -0.42001,5.17126 -3.17785,8.59079 -8.39779,10.05365 -2.10799,0.59073 -3.51738,1.4626 -4.48028,3.53938 -0.72294,1.5593 -2.11174,2.86113 -3.36737,4.11397 -9.65449,9.6328 -19.3088,19.26649 -29.04946,28.81184 -4.25824,4.17287 -9.483174,5.38933 -15.179181,3.80979 -5.993202,-1.66197 -9.743454,-5.78096 -11.410111,-11.70416 -1.475791,-5.24486 -0.206695,-9.93976 3.610672,-13.79346 9.93293,-10.02751 19.88812,-20.03458 29.97065,-29.91069 1.63435,-1.60091 3.99954,-2.43903 5.95671,-3.73572 0.72279,-0.47888 1.41657,-1.17239 1.81371,-1.9304 0.54419,-1.03867 0.73877,-2.2538 1.1793,-3.35485 1.12194,-2.80412 3.10234,-4.74954 5.97244,-5.75499 0.66636,-0.23343 1.33414,-0.46284 2.61663,-0.90745 -3.65248,-3.49777 -7.04704,-6.72724 -10.41594,-9.98323 -1.84114,-1.77942 -3.5815,-3.66829 -5.49248,-5.36692 -0.54433,-0.48385 -1.58119,-0.77468 -2.30182,-0.64642 -19.151701,3.40917 -38.139974,-11.12878 -37.534803,-31.698424 0.06218,-2.113312 0.451492,-4.279099 1.077995,-6.299958 1.091904,-3.522094 3.668251,-4.054184 6.27826,-1.501465 4.001457,3.91362 7.997413,7.833001 12.020454,11.724337 2.084267,2.01604 3.600349,1.97419 5.640816,-0.10929 2.541708,-2.59528 5.092048,-5.183375 7.578448,-7.831111 1.89878,-2.021996 1.88776,-3.056786 -0.009,-5.028435 -3.75684,-3.905952 -7.575052,-7.752914 -11.328111,-11.662445 -3.54937,-3.697327 -2.816215,-6.102325 2.206116,-7.413071 11.230025,-2.930824 24.226485,2.252449 31.141185,12.546242 5.17142,7.698616 6.87925,16.109986 4.59967,25.18037 -0.30802,1.22569 -0.0476,1.92109 0.80788,2.76631 6.47974,6.40212 12.90709,12.85728 19.40503,19.3501 4.0837,-3.95643 8.16312,-7.85419 12.18137,-11.81408 6.70172,-6.60443 13.37565,-13.23726 20.02408,-19.89532 0.60307,-0.603966 1.06631,-1.428338 1.37165,-2.234734 1.26322,-3.336105 2.26876,-6.781708 3.72322,-10.028351 0.71203,-1.589355 1.96904,-3.149109 3.37845,-4.172867 5.05345,-3.670639 10.27167,-7.114898 15.43955,-10.627128 1.97244,-1.340538 2.85537,-1.274849 4.54304,0.365677 2.81833,2.739547 5.58998,5.52716 8.41051,8.264412 1.06972,1.038124 1.42116,2.138389 0.69646,3.514938 -3.10228,5.892761 -6.13045,11.825958 -9.34015,17.659413 -0.6178,1.12281 -1.80173,2.08951 -2.94564,2.73841 -3.46363,1.96479 -7.04315,3.72445 -10.55941,5.59803 -0.67272,0.35843 -1.33873,0.79442 -1.87984,1.32518 -10.79578,10.58977 -21.57274,21.19873 -32.42607,31.8752 2.37527,2.49851 4.39137,4.66838 6.46156,6.78536 3.12224,3.19277 6.25617,6.37537 9.45664,9.4888 0.43939,0.42748 1.36465,0.73331 1.93837,0.58968 14.88482,-3.72595 30.88125,5.0482 36.41685,19.92864 2.07919,5.58911 2.5871,11.33656 1.23282,17.19105 -0.14633,0.63272 -0.34038,1.26752 -0.61058,1.85622 -1.29108,2.81305 -3.39958,3.23312 -5.63553,1.05906 -3.97081,-3.86096 -7.8672,-7.79853 -11.84158,-11.65582 -2.58599,-2.50978 -3.71079,-2.4848 -6.29659,0.0132 -2.22723,2.15162 -4.43353,4.3258 -6.61159,6.52714 -1.86068,1.88055 -1.74508,3.52245 0.0692,5.37225 3.75057,3.82383 7.47202,7.6787 11.11388,11.60569 2.12743,2.294 1.64885,4.28164 -1.26027,5.56858 -5.24026,2.31827 -10.6456,1.98536 -15.8848,0.27974 -12.45147,-4.05365 -19.92321,-12.64672 -21.86405,-25.62605 -0.48885,-3.26919 0.2994,-6.72211 0.40992,-10.09355 0.0263,-0.8019 -0.0418,-1.8736 -0.52667,-2.38345 -3.92435,-4.12612 -7.95847,-8.14777 -12.09483,-12.33884 l 1e-5,-3e-5 z m -2.17488,-31.98558 c -6.80696,-6.77182 -13.59877,-13.61819 -20.50546,-20.34662 -2.15633,-2.10068 -2.62528,-4.29923 -1.72399,-7.10068 3.25295,-10.111043 -0.86367,-21.466092 -9.77496,-27.227658 -3.55667,-2.299568 -7.50339,-3.236496 -12.06554,-3.577957 2.75522,2.954193 5.222,5.59819 7.68775,8.243148 3.91662,4.201264 3.89632,10.21109 -0.0967,14.309087 -2.6598,2.7297 -5.34158,5.44023 -8.08072,8.08986 -4.95393,4.79203 -10.312046,4.71856 -15.27029,-0.0586 -2.426849,-2.33823 -4.960251,-4.56585 -7.445419,-6.84354 -0.139824,0.0587 -0.279633,0.11732 -0.419449,0.176 0.636902,2.49357 1.056862,5.06769 1.947632,7.467 4.206565,11.3306 17.461433,18.14576 28.551176,14.66016 2.63757,-0.82901 4.55832,-0.26259 6.41521,1.64454 3.94668,4.05349 8.01779,7.98565 11.98167,12.02271 2.87168,2.92473 5.65291,5.93825 8.52974,8.97043 3.64192,-3.69815 6.88989,-6.99623 10.26941,-10.42789 z m 3.0284,23.26665 c 5.79736,5.73967 11.6205,11.53079 17.4774,17.28752 1.73376,1.70413 2.44269,3.61647 1.58551,5.96892 -3.67247,10.07867 1.82623,23.16752 12.63924,27.92817 2.80674,1.23575 5.71328,1.95343 9.17944,2.11687 -2.41393,-2.51991 -4.4695,-4.74162 -6.60715,-6.88135 -4.4671,-4.47154 -4.68361,-10.19143 -0.36659,-14.76791 2.69403,-2.85596 5.51695,-5.59522 8.37253,-8.29094 0.83774,-0.79083 1.92062,-1.42366 3.00278,-1.83594 4.24603,-1.61763 7.78681,-0.0288 10.95637,2.72598 2.5396,2.20728 4.99002,4.51717 7.72722,7.00631 -0.12718,-1.08681 -0.20682,-1.83091 -0.30219,-2.57299 -1.98071,-15.41374 -18.40615,-24.76632 -31.10113,-19.77145 -1.89502,0.7456 -3.46262,0.13277 -4.84689,-1.26006 -4.07026,-4.09533 -8.15644,-8.17486 -12.25219,-12.24469 -1.84144,-1.82977 -3.72055,-3.62165 -5.72438,-5.56849 -3.18245,3.31968 -6.34454,6.61813 -9.73999,10.15999 l 3e-5,1e-5 z m -57.524066,52.87313 c 2.761032,-0.0399 4.850647,-0.78111 6.600342,-2.54557 7.292084,-7.35363 14.618114,-14.67366 21.940724,-21.99698 2.65092,-2.65119 5.38198,-5.22458 7.97343,-7.93212 1.87862,-1.96276 2.01823,-3.66145 0.4554,-5.36158 -2.17279,-2.36365 -4.40997,-4.68045 -6.76416,-6.86124 -1.9715,-1.82625 -4.68129,-1.71507 -6.44425,0.0304 -9.93841,9.83982 -19.883587,19.67283 -29.799694,29.53509 -2.993942,2.97768 -3.680366,6.04738 -2.07093,9.55492 1.636161,3.56581 4.541687,5.36842 8.109131,5.5771 z M 144.52198,155.1828 c 0.19376,-0.15968 0.33839,-0.26047 0.46144,-0.38292 14.18125,-14.11197 28.45369,-28.13414 42.48892,-42.38991 4.73619,-4.81062 9.72177,-9.04995 15.99291,-11.65043 0.87617,-0.36332 1.7493,-0.771777 2.54222,-1.285335 0.56749,-0.367538 1.14317,-0.864525 1.4675,-1.442703 2.38528,-4.252152 4.73114,-8.527107 7.01437,-12.834679 0.22386,-0.422325 0.15177,-1.279983 -0.14239,-1.649216 -1.14225,-1.433662 -2.42975,-2.751617 -3.67667,-4.127517 -4.60295,3.068298 -8.87749,5.868271 -13.08285,8.768516 -0.71819,0.495301 -1.33907,1.340546 -1.66451,2.159401 -1.25012,3.14563 -2.27411,6.382469 -3.56519,9.509857 -0.57199,1.385566 -1.37152,2.800236 -2.42158,3.846596 -12.0213,11.97896 -24.11343,23.88677 -36.18068,35.81962 -4.18014,4.1336 -8.34358,8.2841 -12.54897,12.461 1.18134,1.13939 2.20463,2.12632 3.31548,3.1977 z m -18.22339,3.75621 c 0.13699,0.33151 0.27854,1.3147 0.83449,1.9124 2.95421,3.17606 5.95546,6.31387 9.06311,9.33893 1.20325,1.17126 2.82324,1.53963 4.47142,0.76347 1.71457,-0.80742 2.42255,-2.37038 2.33009,-4.08835 -0.0593,-1.10264 -0.56132,-2.37036 -1.27795,-3.21263 -1.99826,-2.34862 -4.18277,-4.54286 -6.35516,-6.7372 -0.82781,-0.83618 -1.73272,-1.67698 -2.75878,-2.22073 -3.01372,-1.59709 -6.35663,0.4091 -6.30723,4.24413 z"
       id="path4-9"
       style="fill:url(#Degradado_sin_nombre_5-2-6)" /><path
       class="cls-3"
       d="m 69.756317,30.735926 c 0.03835,-2.907336 2.207863,-4.973673 5.170494,-4.924622 2.936463,0.04862 5.035729,2.218279 4.96994,5.136538 -0.06406,2.84074 -2.345375,5.038013 -5.189918,4.998699 -2.84021,-0.03925 -4.988915,-2.300831 -4.950516,-5.210615 z"
       id="path5-5"
       style="fill:url(#linearGradient10)" /><path
       class="cls-6"
       d="m 54.483467,35.91814 c -2.805946,-0.03223 -5.041725,-2.32542 -5.035309,-5.164608 0.0061,-2.701517 2.291024,-4.914598 5.074036,-4.914495 2.889526,9.7e-5 5.112045,2.1964 5.119217,5.058822 0.007,2.808787 -2.298828,5.053122 -5.157944,5.020281 z"
       id="path6-4"
       style="fill:url(#Degradado_sin_nombre_5-3-1)" /><path
       class="cls-4"
       d="m 100.20262,30.718267 c 0.0535,2.788432 -2.238402,5.15489 -5.032935,5.196707 -2.787635,0.04172 -5.162994,-2.271599 -5.184677,-5.049284 -0.02145,-2.750604 2.183678,-5.009973 4.932373,-5.053659 2.894356,-0.046 5.231899,2.123907 5.285239,4.906236 z"
       id="path7"
       style="fill:url(#Degradado_sin_nombre_5-5-8)" /></g></svg>
